# xmcd
#
# Track frame offsets:
#	150
#	15142
#	29225
#	52315
#	73057
#	85830
#	97005
#	122122
#	150680
#	167722
#	184687
#	202500
#	228312
#
# Disc length: 3972 seconds
#
# Revision: 2
# Processed by: cddbd v1.4PL0 Copyright (c) Steve Scherf et al.
# Submitted via: audiograbber 1.81.03
#
DISCID=a70f820d
DTITLE=Billy Boy Arnold - Boogie 'n' Shuffle
DYEAR=2001
DGENRE=Blues
TTITLE0=Bad Luck Blues
TTITLE1=Let's Work It Out
TTITLE2=Just Got To Know
TTITLE3=Greenville
TTITLE4=Hello Stranger
TTITLE5=Home In Your Heart
TTITLE6=Blackjack
TTITLE7=Boogie and Shuffle
TTITLE8=Every Night, Every Day
TTITLE9=Come Here Baby
TTITLE10=Just Your Fool
TTITLE11=Greenback
TTITLE12=Interview With Billy Boy Arnold
EXTD=
EXTT0=
EXTT1=
EXTT2=
EXTT3=
EXTT4=
EXTT5=
EXTT6=
EXTT7=
EXTT8=
EXTT9=
EXTT10=
EXTT11=
EXTT12=
PLAYORDER=
